<mxfile host="app.diagrams.net" agent="Mozilla/5.0 (Macintosh; Intel Mac OS X 10_15_7) AppleWebKit/537.36 (KHTML, like Gecko) Chrome/140.0.0.0 Safari/537.36" version="28.2.7">
  <diagram name="Page-1" id="XaSs6gulX6VwmrPYhHJ9">
    <mxGraphModel dx="976" dy="667" grid="1" gridSize="10" guides="1" tooltips="1" connect="1" arrows="1" fold="1" page="1" pageScale="1" pageWidth="827" pageHeight="1169" math="0" shadow="0">
      <root>
        <mxCell id="0" />
        <mxCell id="1" parent="0" />
        <mxCell id="FXWwI7wd3UHpWGxU-6k7-1" value="&lt;h1 style=&quot;margin-top: 0px;&quot;&gt;Knights Tour&lt;/h1&gt;&lt;p&gt;Flowchart showing the thought process&lt;/p&gt;&lt;p&gt;&lt;br&gt;&lt;/p&gt;" style="text;html=1;whiteSpace=wrap;overflow=hidden;rounded=0;" vertex="1" parent="1">
          <mxGeometry x="350" y="10" width="180" height="120" as="geometry" />
        </mxCell>
        <mxCell id="FXWwI7wd3UHpWGxU-6k7-32" style="edgeStyle=orthogonalEdgeStyle;rounded=0;orthogonalLoop=1;jettySize=auto;html=1;" edge="1" parent="1" source="FXWwI7wd3UHpWGxU-6k7-30" target="FXWwI7wd3UHpWGxU-6k7-31">
          <mxGeometry relative="1" as="geometry" />
        </mxCell>
        <mxCell id="FXWwI7wd3UHpWGxU-6k7-30" value="Drawing the chess board&lt;div&gt;&amp;nbsp;&lt;/div&gt;" style="rounded=1;whiteSpace=wrap;html=1;" vertex="1" parent="1">
          <mxGeometry x="354" y="140" width="120" height="60" as="geometry" />
        </mxCell>
        <mxCell id="FXWwI7wd3UHpWGxU-6k7-34" style="edgeStyle=orthogonalEdgeStyle;rounded=0;orthogonalLoop=1;jettySize=auto;html=1;" edge="1" parent="1" source="FXWwI7wd3UHpWGxU-6k7-31" target="FXWwI7wd3UHpWGxU-6k7-33">
          <mxGeometry relative="1" as="geometry" />
        </mxCell>
        <mxCell id="FXWwI7wd3UHpWGxU-6k7-31" value="Identifying the algorithem to solve the problem" style="rounded=1;whiteSpace=wrap;html=1;" vertex="1" parent="1">
          <mxGeometry x="354" y="260" width="120" height="60" as="geometry" />
        </mxCell>
        <mxCell id="FXWwI7wd3UHpWGxU-6k7-36" style="edgeStyle=orthogonalEdgeStyle;rounded=0;orthogonalLoop=1;jettySize=auto;html=1;entryX=0.5;entryY=0;entryDx=0;entryDy=0;" edge="1" parent="1" source="FXWwI7wd3UHpWGxU-6k7-33" target="FXWwI7wd3UHpWGxU-6k7-35">
          <mxGeometry relative="1" as="geometry" />
        </mxCell>
        <mxCell id="FXWwI7wd3UHpWGxU-6k7-33" value="The knight has to touch evey tile on the chess board" style="rounded=1;whiteSpace=wrap;html=1;" vertex="1" parent="1">
          <mxGeometry x="160" y="260" width="120" height="60" as="geometry" />
        </mxCell>
        <mxCell id="FXWwI7wd3UHpWGxU-6k7-38" style="edgeStyle=orthogonalEdgeStyle;rounded=0;orthogonalLoop=1;jettySize=auto;html=1;entryX=0;entryY=0.5;entryDx=0;entryDy=0;" edge="1" parent="1" source="FXWwI7wd3UHpWGxU-6k7-35" target="FXWwI7wd3UHpWGxU-6k7-37">
          <mxGeometry relative="1" as="geometry" />
        </mxCell>
        <mxCell id="FXWwI7wd3UHpWGxU-6k7-35" value="Choosing a methode" style="rounded=1;whiteSpace=wrap;html=1;" vertex="1" parent="1">
          <mxGeometry x="160" y="380" width="120" height="60" as="geometry" />
        </mxCell>
        <mxCell id="FXWwI7wd3UHpWGxU-6k7-40" style="edgeStyle=orthogonalEdgeStyle;rounded=0;orthogonalLoop=1;jettySize=auto;html=1;" edge="1" parent="1" source="FXWwI7wd3UHpWGxU-6k7-37" target="FXWwI7wd3UHpWGxU-6k7-39">
          <mxGeometry relative="1" as="geometry" />
        </mxCell>
        <mxCell id="FXWwI7wd3UHpWGxU-6k7-37" value="Backtracking" style="rounded=1;whiteSpace=wrap;html=1;" vertex="1" parent="1">
          <mxGeometry x="354" y="380" width="120" height="60" as="geometry" />
        </mxCell>
        <mxCell id="FXWwI7wd3UHpWGxU-6k7-43" style="edgeStyle=orthogonalEdgeStyle;rounded=0;orthogonalLoop=1;jettySize=auto;html=1;" edge="1" parent="1" source="FXWwI7wd3UHpWGxU-6k7-39" target="FXWwI7wd3UHpWGxU-6k7-41">
          <mxGeometry relative="1" as="geometry" />
        </mxCell>
        <mxCell id="FXWwI7wd3UHpWGxU-6k7-39" value="The knights preformes a legal move: if there are no legal moves it moves back 1 move" style="rounded=1;whiteSpace=wrap;html=1;" vertex="1" parent="1">
          <mxGeometry x="360" y="480" width="120" height="90" as="geometry" />
        </mxCell>
        <mxCell id="FXWwI7wd3UHpWGxU-6k7-45" style="edgeStyle=orthogonalEdgeStyle;rounded=0;orthogonalLoop=1;jettySize=auto;html=1;" edge="1" parent="1" source="FXWwI7wd3UHpWGxU-6k7-41">
          <mxGeometry relative="1" as="geometry">
            <mxPoint x="570" y="650" as="targetPoint" />
          </mxGeometry>
        </mxCell>
        <mxCell id="FXWwI7wd3UHpWGxU-6k7-41" value="The code runs though the possible moves" style="rounded=1;whiteSpace=wrap;html=1;" vertex="1" parent="1">
          <mxGeometry x="540" y="495" width="120" height="60" as="geometry" />
        </mxCell>
        <mxCell id="FXWwI7wd3UHpWGxU-6k7-44" value="Print out the moves the knight made during its tour" style="rounded=1;whiteSpace=wrap;html=1;" vertex="1" parent="1">
          <mxGeometry x="510" y="650" width="120" height="60" as="geometry" />
        </mxCell>
      </root>
    </mxGraphModel>
  </diagram>
</mxfile>
